<svg xmlns="http://www.w3.org/2000/svg" version="1.1" xmlns:xlink="http://www.w3.org/1999/xlink" xmlns:svgjs="http://svgjs.com/svgjs" width="375" height="812" preserveAspectRatio="none" viewBox="0 0 375 812"><g mask="url(&quot;#SvgjsMask1562&quot;)" fill="none"><rect width="375" height="812" x="0" y="0" fill="url(#SvgjsRadialGradient1563)"></rect><path d="M375 0L282.5 0L375 350.48z" fill="rgba(255, 255, 255, .1)"></path><path d="M282.5 0L375 350.48L375 414.22L232.88 0z" fill="rgba(255, 255, 255, .075)"></path><path d="M232.88 0L375 414.22L375 649.6L174.57999999999998 0z" fill="rgba(255, 255, 255, .05)"></path><path d="M174.57999999999998 0L375 649.6L375 719.71L170.51999999999998 0z" fill="rgba(255, 255, 255, .025)"></path><path d="M0 812L170.29 812L0 605.3199999999999z" fill="rgba(0, 0, 0, .1)"></path><path d="M0 605.3199999999999L170.29 812L195.39999999999998 812L0 537.3199999999999z" fill="rgba(0, 0, 0, .075)"></path><path d="M0 537.3199999999999L195.39999999999998 812L269.83 812L0 364.7099999999999z" fill="rgba(0, 0, 0, .05)"></path><path d="M0 364.71L269.83 812L337.14 812L0 296.12z" fill="rgba(0, 0, 0, .025)"></path></g><defs><mask id="SvgjsMask1562"><rect width="375" height="812" fill="#ffffff"></rect></mask><radialGradient cx="100%" cy="50%" r="552.69" gradientUnits="userSpaceOnUse" id="SvgjsRadialGradient1563"><stop stop-color="#0e2a47" offset="0"></stop><stop stop-color="rgba(0, 158, 149, 1)" offset="1"></stop></radialGradient></defs></svg>